<svg width="25" height="21" viewBox="0 0 25 21" fill="none" xmlns="http://www.w3.org/2000/svg">
<path d="M15.3703 5.08789C15.1051 5.08789 14.8507 4.98253 14.6632 4.795C14.4757 4.60746 14.3703 4.35311 14.3703 4.08789V2.58789H10.3703V4.08789C10.3703 4.35311 10.2649 4.60746 10.0774 4.795C9.88987 4.98253 9.63552 5.08789 9.3703 5.08789C9.10508 5.08789 8.85073 4.98253 8.66319 4.795C8.47566 4.60746 8.3703 4.35311 8.3703 4.08789V2.58789C8.3703 1.48489 9.2673 0.587891 10.3703 0.587891H14.3703C15.4733 0.587891 16.3703 1.48489 16.3703 2.58789V4.08789C16.3703 4.35311 16.2649 4.60746 16.0774 4.795C15.8899 4.98253 15.6355 5.08789 15.3703 5.08789ZM13.0803 13.9679C12.5996 14.1331 12.0764 14.126 11.6003 13.9479L0.3703 10.2079V17.8379C0.3703 19.3579 1.6003 20.5879 3.1203 20.5879H21.6203C23.1403 20.5879 24.3703 19.3579 24.3703 17.8379V10.2079L13.0803 13.9679Z" fill="white"/>
<path d="M24.3703 6.33789V8.62789L12.6103 12.5479C12.5303 12.5779 12.4503 12.5879 12.3703 12.5879C12.2903 12.5879 12.2103 12.5779 12.1303 12.5479L0.3703 8.62789V6.33789C0.3703 4.81789 1.6003 3.58789 3.1203 3.58789H21.6203C23.1403 3.58789 24.3703 4.81789 24.3703 6.33789Z" fill="white"/>
</svg>
