<svg width="17" height="16" viewBox="0 0 17 16" fill="none" xmlns="http://www.w3.org/2000/svg">
<path fill-rule="evenodd" clip-rule="evenodd" d="M8.46623 10.8534C8.37248 10.947 8.24539 10.9996 8.11289 10.9996C7.98039 10.9996 7.85331 10.947 7.75956 10.8534L2.75956 5.85335C2.67124 5.75857 2.62316 5.63321 2.62544 5.50367C2.62773 5.37414 2.6802 5.25055 2.77181 5.15894C2.86342 5.06733 2.98701 5.01486 3.11655 5.01257C3.24608 5.01029 3.37144 5.05837 3.46623 5.14669L8.11289 9.79335L12.7596 5.14669C12.8053 5.09756 12.8605 5.05816 12.9219 5.03083C12.9832 5.00351 13.0494 4.98881 13.1165 4.98763C13.1837 4.98644 13.2504 4.99879 13.3126 5.02394C13.3749 5.04909 13.4314 5.08652 13.4789 5.134C13.5264 5.18147 13.5638 5.23803 13.589 5.30029C13.6141 5.36255 13.6265 5.42923 13.6253 5.49637C13.6241 5.5635 13.6094 5.62971 13.5821 5.69105C13.5548 5.75238 13.5154 5.80758 13.4662 5.85335L8.46623 10.8534Z" fill="white"/>
</svg>
