<svg width="21" height="20" viewBox="0 0 21 20" fill="none" xmlns="http://www.w3.org/2000/svg">
<path d="M14.4416 19.9914C14.1764 19.9914 13.9221 19.886 13.7345 19.6985C13.547 19.5109 13.4416 19.2566 13.4416 18.9914V16.3914C13.4727 16.0923 13.4407 15.79 13.3477 15.5041C13.2547 15.2182 13.1027 14.9549 12.9016 14.7314C12.7772 14.5963 12.6922 14.4296 12.6562 14.2495C12.6202 14.0694 12.6345 13.8829 12.6975 13.7104C12.7605 13.5379 12.8699 13.3861 13.0135 13.2716C13.1571 13.1571 13.3294 13.0843 13.5117 13.0614C15.9517 12.7714 18.2017 11.9914 18.2017 7.76136C18.2024 6.97144 17.9693 6.19897 17.5317 5.54136C17.1278 4.93599 16.9804 4.19522 17.1217 3.48136C17.2118 3.01568 17.2118 2.53704 17.1217 2.07136C16.3729 2.32453 15.6678 2.69223 15.0316 3.16136C14.9114 3.24677 14.7737 3.30452 14.6285 3.33045C14.4832 3.35638 14.3341 3.34986 14.1916 3.31136C12.387 2.80142 10.4763 2.80142 8.67165 3.31136C8.52924 3.34986 8.38007 3.35638 8.23485 3.33045C8.08962 3.30452 7.95193 3.24677 7.83165 3.16136C7.19159 2.6868 6.47908 2.31872 5.72165 2.07136C5.62655 2.53655 5.62655 3.01617 5.72165 3.48136C5.85274 4.20421 5.69861 4.94974 5.29165 5.56136C4.85591 6.22358 4.62305 6.99864 4.62165 7.79136C4.62165 11.6814 6.50165 12.7214 9.32165 13.0814C9.50618 13.1043 9.68067 13.1781 9.82552 13.2947C9.97037 13.4113 10.0798 13.566 10.1416 13.7414C10.1998 13.9115 10.211 14.0942 10.174 14.2702C10.1371 14.4462 10.0533 14.609 9.93165 14.7414C9.73715 14.9493 9.58786 15.1952 9.49319 15.4637C9.39853 15.7322 9.36055 16.0174 9.38165 16.3014V18.9914C9.38165 19.2566 9.27629 19.5109 9.08876 19.6985C8.90122 19.886 8.64687 19.9914 8.38165 19.9914C8.11643 19.9914 7.86208 19.886 7.67454 19.6985C7.48701 19.5109 7.38165 19.2566 7.38165 18.9914V18.4214C6.39901 18.5344 5.40368 18.4027 4.48423 18.0381C3.56479 17.6734 2.74975 17.0871 2.11165 16.3314C1.78365 15.9678 1.39013 15.6693 0.95165 15.4514C0.824268 15.4185 0.704599 15.3609 0.599477 15.2819C0.494355 15.2028 0.405838 15.1038 0.338979 14.9905C0.272121 14.8772 0.228231 14.7518 0.209816 14.6216C0.1914 14.4913 0.198819 14.3587 0.23165 14.2314C0.26448 14.104 0.322079 13.9843 0.401158 13.8792C0.480236 13.7741 0.579246 13.6855 0.692533 13.6187C0.80582 13.5518 0.931167 13.5079 1.06142 13.4895C1.19167 13.4711 1.32427 13.4785 1.45165 13.5114C2.2209 13.7916 2.90825 14.259 3.45165 14.8714C4.45165 15.8714 5.45165 16.7514 7.35165 16.3914C7.31824 15.8545 7.39656 15.3165 7.58165 14.8114C5.52165 14.2914 2.58165 12.8114 2.58165 7.81136C2.57901 6.62699 2.92696 5.46833 3.58165 4.48136C3.70325 4.29916 3.74982 4.07705 3.71165 3.86136C3.50958 2.78193 3.62419 1.66709 4.04165 0.651358C4.09837 0.515922 4.18422 0.39464 4.29311 0.296127C4.40199 0.197614 4.53123 0.124288 4.67165 0.0813577C5.01165 -0.0186423 6.23165 -0.218642 8.54165 1.28136C10.4116 0.831362 12.3617 0.831362 14.2317 1.28136C16.5417 -0.218642 17.7617 -0.0286423 18.0917 0.0813577C18.2321 0.124288 18.3613 0.197614 18.4702 0.296127C18.5791 0.39464 18.6649 0.515922 18.7217 0.651358C19.1399 1.67039 19.2545 2.78866 19.0517 3.87136C19.0312 3.96891 19.0304 4.06956 19.0493 4.16743C19.0682 4.2653 19.1064 4.35842 19.1616 4.44136C19.8182 5.43117 20.1663 6.59359 20.1616 7.78136C20.1616 12.8514 17.2416 14.3214 15.1616 14.7814C15.3449 15.318 15.4197 15.8856 15.3816 16.4514V18.9914C15.3821 19.2465 15.285 19.4922 15.1103 19.6781C14.9355 19.864 14.6963 19.976 14.4416 19.9914Z" fill="white"/>
</svg>
