<svg width="24" height="24" viewBox="0 0 24 24" fill="none" xmlns="http://www.w3.org/2000/svg">
<path d="M12.1617 1C7.51489 1 1.16174 4.51221 1.16174 12C1.16174 19.2972 7.27237 23 12.1617 23C20.5503 23 23.1617 15.6508 23.1617 12C23.1617 6.6126 19.0389 1 12.1617 1ZM9.61096 2.03504C8.46332 3.01378 7.51056 4.63346 6.8956 6.64291C6.09875 6.17087 5.36686 5.58622 4.71726 4.9063C6.05977 3.49882 7.75741 2.51142 9.61096 2.03504ZM4.24521 5.43465C4.97277 6.19252 5.79993 6.8378 6.70072 7.34882C6.36292 8.66102 6.16371 10.1161 6.13773 11.6449H1.88064C1.95859 9.3626 2.79009 7.18425 4.24521 5.43465ZM4.24521 18.5654C2.78576 16.8157 1.95859 14.6374 1.88064 12.3551H6.13773C6.16371 13.8882 6.36292 15.339 6.70072 16.6512C5.80426 17.1665 4.9771 17.8075 4.24521 18.5654ZM4.71726 19.098C5.36686 18.4181 6.09875 17.8335 6.8956 17.3614C7.51056 19.3665 8.46332 20.9906 9.61096 21.9693C7.75741 21.4886 6.05977 20.5012 4.71726 19.098ZM11.8066 22.2638C9.96174 22.0299 8.37237 19.9685 7.51489 17.015C8.84009 16.3437 10.3039 15.9669 11.8066 15.9106V22.2638ZM11.8066 15.2047C10.2389 15.2567 8.7145 15.6421 7.333 16.3177C7.04285 15.1051 6.86962 13.7669 6.84363 12.3551H11.8066V15.2047ZM11.8066 11.6449H6.84363C6.86962 10.2331 7.04285 8.89488 7.333 7.68228C8.71883 8.35787 10.2432 8.74331 11.8066 8.79528V11.6449ZM11.8066 8.08937C10.2995 8.0374 8.84009 7.6563 7.51489 6.98504C8.37237 4.02717 9.96174 1.97008 11.8066 1.73622V8.08937ZM20.0783 5.43465C21.5334 7.18425 22.3649 9.3626 22.4428 11.6449H18.1901C18.1641 10.1118 17.9649 8.66102 17.6271 7.34882C18.5236 6.83347 19.3507 6.19252 20.0783 5.43465ZM19.6062 4.90197C18.9566 5.58189 18.2247 6.16654 17.4279 6.63858C16.8129 4.63346 15.8602 3.01378 14.7125 2.03071C16.5661 2.51142 18.2637 3.49882 19.6062 4.90197ZM12.5169 1.73622C14.3617 1.97008 15.9511 4.0315 16.8086 6.98504C15.4834 7.6563 14.0239 8.03307 12.5169 8.08937V1.73622ZM12.5169 8.79528C14.0846 8.74331 15.609 8.35787 16.9905 7.68228C17.2806 8.89488 17.4539 10.2331 17.4799 11.6449H12.5169V8.79528ZM12.5169 12.3551H17.4799C17.4539 13.7669 17.2806 15.1051 16.9905 16.3177C15.5959 15.6314 14.0704 15.2519 12.5169 15.2047V12.3551ZM12.5169 22.2638V15.9106C14.0239 15.9626 15.4834 16.3437 16.8086 17.015C15.9511 19.9728 14.3617 22.0299 12.5169 22.2638ZM14.7125 21.965C15.8602 20.9862 16.8129 19.3665 17.4279 17.3571C18.2247 17.8291 18.9566 18.4138 19.6062 19.0937C18.2637 20.5012 16.5661 21.4886 14.7125 21.965ZM20.0783 18.5654C19.3507 17.8075 18.5236 17.1665 17.6271 16.6512C17.9649 15.339 18.1641 13.8839 18.1901 12.3551H22.4428C22.3649 14.6374 21.5334 16.8157 20.0783 18.5654Z" fill="white" stroke="white" stroke-width="0.6"/>
</svg>
