<svg width="20" height="20" viewBox="0 0 20 20" fill="none" xmlns="http://www.w3.org/2000/svg">
<path d="M19.2 19.6V12.568C19.2 9.11202 18.456 6.47202 14.424 6.47202C12.48 6.47202 11.184 7.52802 10.656 8.53602H10.608V6.78402H6.792V19.6H10.776V13.24C10.776 11.56 11.088 9.95202 13.152 9.95202C15.192 9.95202 15.216 11.848 15.216 13.336V19.576H19.2V19.6ZM0.312 6.78402H4.296V19.6H0.312V6.78402ZM2.304 0.400024C1.032 0.400024 0 1.43202 0 2.70402C0 3.97602 1.032 5.03202 2.304 5.03202C3.576 5.03202 4.608 3.97602 4.608 2.70402C4.608 1.43202 3.576 0.400024 2.304 0.400024Z" fill="white"/>
</svg>
