<svg width="70" height="78" viewBox="0 0 70 78" fill="none" xmlns="http://www.w3.org/2000/svg">
<path d="M12.4435 61.4099H13.4707V68.8999H12.4435V61.4099Z" fill="white" stroke="#002060" stroke-width="0.044544" stroke-miterlimit="10"/>
<path d="M14.4985 61.4099H20.4905V62.3515H18.0081V68.8999H16.9809V62.3515H14.4985V61.4099Z" fill="white" stroke="#002060" stroke-width="0.044544" stroke-miterlimit="10"/>
<path d="M23.9997 61.4099H27.1241C27.3809 61.4099 27.5521 61.4099 27.7233 61.4099C27.8945 61.4099 28.0657 61.4099 28.1941 61.4527C28.3225 61.4527 28.4509 61.4955 28.5365 61.5383C28.6221 61.5811 28.7505 61.6239 28.8361 61.6667C29.4781 62.0091 29.8205 62.6083 29.8205 63.4643C29.8205 63.6783 29.8205 63.8923 29.7777 64.0635C29.7349 64.2347 29.6921 64.4059 29.6065 64.5343C29.5209 64.6627 29.4353 64.7911 29.2641 64.9195C29.0929 65.0479 28.9645 65.1335 28.7933 65.2191C28.9645 65.3047 29.1357 65.3475 29.2641 65.4331C29.3925 65.5187 29.4781 65.6043 29.5637 65.7327C29.6493 65.8611 29.6921 66.0323 29.6921 66.2035C29.7349 66.3747 29.7349 66.6315 29.7349 66.8883V67.7443C29.7349 68.1295 29.8205 68.5147 30.0345 68.8143L30.0773 68.8999H28.7933C28.7505 68.6859 28.7077 68.5147 28.6649 68.3435C28.6221 68.1723 28.6221 68.0011 28.6221 67.8299V66.8883C28.6221 66.2463 28.3653 65.8611 27.8945 65.7755C27.7233 65.7327 27.4237 65.7327 27.0385 65.7327H25.0269V68.8999H23.9997V61.4099ZM25.0269 62.3087V64.7055H26.9957C27.1669 64.7055 27.3381 64.7055 27.4665 64.7055C27.5949 64.7055 27.6805 64.7055 27.7661 64.6627C27.8517 64.6627 27.9373 64.6199 27.9801 64.6199C28.0229 64.6199 28.1085 64.5771 28.1941 64.5343C28.5365 64.3631 28.7077 64.0207 28.7077 63.5071C28.7077 63.2503 28.6649 63.0363 28.5365 62.8651C28.4509 62.6939 28.2797 62.5227 28.0657 62.4371C27.8517 62.3515 27.5093 62.3087 27.0385 62.3087H25.0269Z" fill="white" stroke="#002060" stroke-width="0.044544" stroke-miterlimit="10"/>
<path d="M33.5014 61.4099H34.5714L37.2678 68.8999H36.155L35.3846 66.6743H32.517L31.7038 68.8999H30.591L33.5014 61.4099ZM34.015 62.5227L32.8594 65.7755H35.085L34.015 62.5227Z" fill="white" stroke="#002060" stroke-width="0.044544" stroke-miterlimit="10"/>
<path d="M38.2522 61.4099H39.4078L42.8318 67.2735V61.4099H43.859V68.8999H42.7034L39.2794 62.9507V68.8571H38.2522V61.4099Z" fill="white" stroke="#002060" stroke-width="0.044544" stroke-miterlimit="10"/>
<path d="M45.6563 61.3674H46.6835V65.0054L50.2359 61.3674H51.6055L48.5667 64.4062L51.5627 68.8574H50.3215L47.8391 65.1338L46.6407 66.2894V68.9002H45.6135V61.3674H45.6563Z" fill="white" stroke="#002060" stroke-width="0.044544" stroke-miterlimit="10"/>
<path d="M52.0766 66.376H53.1466V66.59C53.1466 66.7184 53.1466 66.8468 53.1466 66.9324C53.1466 67.018 53.1894 67.1036 53.1894 67.1892C53.2322 67.2748 53.275 67.3176 53.3178 67.4032C53.3606 67.446 53.4462 67.5316 53.5318 67.5744C53.8742 67.874 54.4306 68.0452 55.1154 68.0452C55.3722 68.0452 55.629 68.0024 55.843 67.9596C56.057 67.9168 56.271 67.8312 56.3994 67.7028C56.5706 67.6172 56.699 67.4888 56.7846 67.3176C56.8702 67.1892 56.913 67.018 56.913 66.8468C56.913 66.7612 56.913 66.6328 56.8702 66.5472C56.8274 66.4616 56.7846 66.3332 56.7418 66.2476C56.6562 66.162 56.5706 66.0764 56.485 65.9908C56.3566 65.9052 56.2282 65.8196 56.057 65.7768L53.7458 65.2204C53.2322 65.0492 52.8898 64.7924 52.633 64.4928C52.419 64.1932 52.2906 63.808 52.2906 63.38C52.2906 63.0804 52.3334 62.7808 52.4618 62.524C52.5902 62.2672 52.7614 62.0532 53.0182 61.8392C53.275 61.6252 53.5318 61.4968 53.8742 61.4112C54.2166 61.3256 54.559 61.24 54.987 61.24C55.2866 61.24 55.5862 61.2828 55.8858 61.3256C56.1854 61.3684 56.3994 61.4968 56.6562 61.5824C56.913 61.668 57.0842 61.8392 57.2126 62.0104C57.341 62.1816 57.5122 62.3528 57.555 62.5668C57.5978 62.6524 57.6406 62.7808 57.6406 62.9092C57.6406 63.0376 57.6834 63.2088 57.6834 63.38V63.6368H56.6134C56.6134 63.5084 56.6134 63.4228 56.6134 63.3372C56.6134 63.2516 56.6134 63.166 56.5706 63.1232C56.5278 63.0804 56.5278 62.9948 56.5278 62.952C56.5278 62.9092 56.485 62.8664 56.4422 62.7808C56.3566 62.6952 56.3138 62.6096 56.1854 62.524C56.057 62.4384 55.9714 62.3956 55.843 62.3528C55.7146 62.31 55.5862 62.2672 55.415 62.2244C55.2438 62.1816 55.1154 62.1816 54.9442 62.1816C54.7302 62.1816 54.5162 62.2244 54.345 62.2672C54.1738 62.31 54.0026 62.3956 53.8314 62.4812C53.703 62.5668 53.5746 62.6952 53.489 62.8236C53.4034 62.952 53.3606 63.1232 53.3606 63.2944C53.3606 63.4228 53.3606 63.5084 53.4034 63.594C53.4034 63.6796 53.4462 63.7652 53.5318 63.8508C53.6174 63.9364 53.6602 63.9792 53.7886 64.022C53.8742 64.0648 54.0454 64.1504 54.1738 64.1932L56.5706 64.7924C57.4694 65.1348 57.9402 65.734 57.9402 66.6328C57.9402 66.9324 57.8974 67.232 57.769 67.5316C57.6406 67.8312 57.4694 68.0452 57.2554 68.2592C56.9986 68.4732 56.699 68.6444 56.3566 68.7728C55.9714 68.9012 55.5434 68.944 55.0298 68.944C54.0454 68.944 53.275 68.73 52.7614 68.3448C52.2478 67.9596 51.991 67.3604 51.991 66.5472V66.376H52.0766Z" fill="white" stroke="#002060" stroke-width="0.044544" stroke-miterlimit="10"/>
<path d="M18.1362 49.1704V11.2925H14.1558V49.1276C13.1286 49.7696 12.401 50.968 12.401 52.2948C12.401 54.3492 14.0702 56.0184 16.1246 56.0184C18.179 56.0184 19.8482 54.3492 19.8482 52.2948C19.891 50.968 19.1634 49.8124 18.1362 49.1704ZM16.1674 54.2208C15.0974 54.2208 14.2414 53.3648 14.2414 52.2948C14.2414 51.2248 15.0974 50.3688 16.1674 50.3688C17.2374 50.3688 18.0934 51.2248 18.0934 52.2948C18.0934 53.3648 17.1946 54.2208 16.1674 54.2208Z" fill="white"/>
<path d="M57.9834 10.9075H32.6458V49.1278C31.6186 49.7698 30.891 50.9682 30.891 52.295C30.891 54.3494 32.5602 56.0186 34.6146 56.0186C36.669 56.0186 38.3382 54.3494 38.3382 52.295C38.3382 50.9682 37.6534 49.8126 36.5834 49.1278V14.8879H54.003V30.6811H44.587C43.4742 30.6811 42.447 31.3659 42.019 32.3931C41.6338 33.2919 41.7622 34.3619 42.3614 35.1322L50.5362 50.4546C50.2366 51.011 50.0654 51.6102 50.0654 52.295C50.0654 54.3494 51.7346 56.0186 53.789 56.0186C55.8434 56.0186 57.5126 54.3494 57.5126 52.295C57.5126 50.3262 55.9718 48.6998 54.0458 48.5714L46.5558 34.6615H57.9406V10.9075H57.9834ZM34.6146 54.221C33.5446 54.221 32.6886 53.365 32.6886 52.295C32.6886 51.225 33.5446 50.369 34.6146 50.369C35.6846 50.369 36.5406 51.225 36.5406 52.295C36.5406 53.365 35.6846 54.221 34.6146 54.221ZM53.7462 50.369C54.8162 50.369 55.6722 51.225 55.6722 52.295C55.6722 53.365 54.8162 54.221 53.7462 54.221C52.6762 54.221 51.8202 53.365 51.8202 52.295C51.8202 51.225 52.6762 50.369 53.7462 50.369Z" fill="white"/>
<path d="M58.2824 5.60051V1.62012H13.856V5.60051H23.4432V49.1709C22.3732 49.8129 21.6884 51.0113 21.6884 52.3381C21.6884 54.3925 23.3576 56.0617 25.412 56.0617C27.4664 56.0617 29.1356 54.3925 29.1356 52.3381C29.1356 51.0113 28.4508 49.8557 27.3808 49.1709V5.60051H58.2824ZM25.412 54.2213C24.342 54.2213 23.486 53.3653 23.486 52.2953C23.486 51.2253 24.342 50.3693 25.412 50.3693C26.482 50.3693 27.338 51.2253 27.338 52.2953C27.338 53.3653 26.482 54.2213 25.412 54.2213Z" fill="white"/>
<path d="M22.3088 64.7181V65.3181H19.8652V64.7181H22.3088Z" fill="white"/>
<path d="M14.7834 72.4336V72.7305H13.7902V76.0125H13.4318V72.7305H12.4334V72.4336H14.7834ZM15.6566 72.7254V74.0617H17.0133V74.3587H15.6566V75.7155H17.1669V76.0125H15.2982V72.4285H17.1669V72.7254H15.6566ZM17.6581 74.2205C17.6581 73.8689 17.7349 73.5549 17.8885 73.2784C18.0421 72.9985 18.252 72.7817 18.5183 72.6281C18.7845 72.4711 19.0815 72.3926 19.4091 72.3926C19.8085 72.3926 20.1498 72.4882 20.4331 72.6793C20.7199 72.8671 20.9281 73.1333 21.0578 73.4781H20.6379C20.5355 73.2357 20.3785 73.0463 20.1669 72.9097C19.9587 72.7732 19.7061 72.7049 19.4091 72.7049C19.1463 72.7049 18.9091 72.7664 18.6975 72.8893C18.4893 73.0121 18.3254 73.1896 18.2059 73.4217C18.0865 73.6504 18.0267 73.9167 18.0267 74.2205C18.0267 74.5242 18.0865 74.7905 18.2059 75.0192C18.3254 75.2479 18.4893 75.4237 18.6975 75.5465C18.9091 75.6694 19.1463 75.7309 19.4091 75.7309C19.7061 75.7309 19.9587 75.6643 20.1669 75.5312C20.3785 75.3946 20.5355 75.2069 20.6379 74.968H21.0578C20.9281 75.3093 20.7199 75.5738 20.4331 75.7616C20.1464 75.9493 19.8051 76.0432 19.4091 76.0432C19.0815 76.0432 18.7845 75.9664 18.5183 75.8128C18.252 75.6558 18.0421 75.439 17.8885 75.1625C17.7349 74.8861 17.6581 74.572 17.6581 74.2205ZM24.378 72.4336V76.0125H24.0196V74.3382H22.0791V76.0125H21.7207V72.4336H22.0791V74.0413H24.0196V72.4336H24.378ZM27.8428 76.0125H27.4844L25.5029 73.0019V76.0125H25.1445V72.4336H25.5029L27.4844 75.439V72.4336H27.8428V76.0125ZM30.211 76.0483C29.8799 76.0483 29.5795 75.9715 29.3099 75.8179C29.0402 75.6609 28.8269 75.4441 28.6699 75.1677C28.5163 74.8878 28.4395 74.572 28.4395 74.2205C28.4395 73.8689 28.5163 73.5549 28.6699 73.2784C28.8269 72.9985 29.0402 72.7817 29.3099 72.6281C29.5795 72.4711 29.8799 72.3926 30.211 72.3926C30.5455 72.3926 30.8476 72.4711 31.1173 72.6281C31.3869 72.7817 31.5985 72.9985 31.7521 73.2784C31.9057 73.5549 31.9825 73.8689 31.9825 74.2205C31.9825 74.572 31.9057 74.8878 31.7521 75.1677C31.5985 75.4441 31.3869 75.6609 31.1173 75.8179C30.8476 75.9715 30.5455 76.0483 30.211 76.0483ZM30.211 75.736C30.4773 75.736 30.7162 75.6745 30.9278 75.5517C31.1394 75.4288 31.3067 75.253 31.4296 75.0243C31.5525 74.7922 31.6139 74.5242 31.6139 74.2205C31.6139 73.9167 31.5525 73.6504 31.4296 73.4217C31.3067 73.193 31.1394 73.0173 30.9278 72.8944C30.7162 72.7715 30.4773 72.7101 30.211 72.7101C29.9448 72.7101 29.7058 72.7715 29.4942 72.8944C29.2826 73.0173 29.1153 73.193 28.9925 73.4217C28.8696 73.6504 28.8081 73.9167 28.8081 74.2205C28.8081 74.5242 28.8696 74.7922 28.9925 75.0243C29.1153 75.253 29.2826 75.4288 29.4942 75.5517C29.7058 75.6745 29.9448 75.736 30.211 75.736ZM32.9455 75.7206H34.2307V76.0125H32.5871V72.4336H32.9455V75.7206ZM36.2986 76.0483C35.9675 76.0483 35.6671 75.9715 35.3975 75.8179C35.1278 75.6609 34.9145 75.4441 34.7575 75.1677C34.6039 74.8878 34.5271 74.572 34.5271 74.2205C34.5271 73.8689 34.6039 73.5549 34.7575 73.2784C34.9145 72.9985 35.1278 72.7817 35.3975 72.6281C35.6671 72.4711 35.9675 72.3926 36.2986 72.3926C36.6331 72.3926 36.9352 72.4711 37.2048 72.6281C37.4745 72.7817 37.6861 72.9985 37.8397 73.2784C37.9933 73.5549 38.0701 73.8689 38.0701 74.2205C38.0701 74.572 37.9933 74.8878 37.8397 75.1677C37.6861 75.4441 37.4745 75.6609 37.2048 75.8179C36.9352 75.9715 36.6331 76.0483 36.2986 76.0483ZM36.2986 75.736C36.5648 75.736 36.8038 75.6745 37.0154 75.5517C37.227 75.4288 37.3943 75.253 37.5172 75.0243C37.64 74.7922 37.7015 74.5242 37.7015 74.2205C37.7015 73.9167 37.64 73.6504 37.5172 73.4217C37.3943 73.193 37.227 73.0173 37.0154 72.8944C36.8038 72.7715 36.5648 72.7101 36.2986 72.7101C36.0324 72.7101 35.7934 72.7715 35.5818 72.8944C35.3702 73.0173 35.2029 73.193 35.0801 73.4217C34.9572 73.6504 34.8957 73.9167 34.8957 74.2205C34.8957 74.5242 34.9572 74.7922 35.0801 75.0243C35.2029 75.253 35.3702 75.4288 35.5818 75.5517C35.7934 75.6745 36.0324 75.736 36.2986 75.736ZM41.4907 73.4781C41.3883 73.2425 41.2313 73.0582 41.0197 72.9251C40.8115 72.7886 40.5657 72.7203 40.2824 72.7203C40.0162 72.7203 39.7772 72.7817 39.5656 72.9046C39.354 73.0275 39.1867 73.2033 39.0638 73.432C38.941 73.6573 38.8795 73.9201 38.8795 74.2205C38.8795 74.5208 38.941 74.7854 39.0638 75.0141C39.1867 75.2427 39.354 75.4185 39.5656 75.5414C39.7772 75.6643 40.0162 75.7257 40.2824 75.7257C40.5316 75.7257 40.7552 75.6728 40.9531 75.567C41.1545 75.4578 41.3149 75.3042 41.4344 75.1062C41.5573 74.9048 41.6273 74.671 41.6443 74.4048H40.139V74.1129H42.0232V74.3741C42.0061 74.6881 41.9208 74.9731 41.7672 75.2291C41.6136 75.4817 41.4071 75.6814 41.1477 75.8281C40.8917 75.9749 40.6033 76.0483 40.2824 76.0483C39.9513 76.0483 39.6509 75.9715 39.3813 75.8179C39.1116 75.6609 38.8983 75.4441 38.7413 75.1677C38.5877 74.8878 38.5109 74.572 38.5109 74.2205C38.5109 73.8689 38.5877 73.5549 38.7413 73.2784C38.8983 72.9985 39.1116 72.7817 39.3813 72.6281C39.6509 72.4711 39.9513 72.3926 40.2824 72.3926C40.6647 72.3926 40.9992 72.4882 41.2859 72.6793C41.5726 72.8705 41.7809 73.1367 41.9106 73.4781H41.4907ZM44.994 72.4336L43.8471 74.6198V76.0125H43.4887V74.6198L42.3316 72.4336H42.736L43.6679 74.2921L44.5946 72.4336H44.994Z" fill="white"/>
</svg>
