<svg width="25" height="24" viewBox="0 0 25 24" fill="none" xmlns="http://www.w3.org/2000/svg">
<g clip-path="url(#clip0_377_55)">
<path d="M8.25006 6.75H20.2501M8.25006 12H20.2501M8.25006 17.25H20.2501M3.75006 6.75H3.75706V6.758H3.75006V6.75ZM4.12506 6.75C4.12506 6.84946 4.08555 6.94484 4.01523 7.01516C3.9449 7.08549 3.84952 7.125 3.75006 7.125C3.6506 7.125 3.55522 7.08549 3.4849 7.01516C3.41457 6.94484 3.37506 6.84946 3.37506 6.75C3.37506 6.65054 3.41457 6.55516 3.4849 6.48484C3.55522 6.41451 3.6506 6.375 3.75006 6.375C3.84952 6.375 3.9449 6.41451 4.01523 6.48484C4.08555 6.55516 4.12506 6.65054 4.12506 6.75ZM3.75006 12H3.75706V12.008H3.75006V12ZM4.12506 12C4.12506 12.0995 4.08555 12.1948 4.01523 12.2652C3.9449 12.3355 3.84952 12.375 3.75006 12.375C3.6506 12.375 3.55522 12.3355 3.4849 12.2652C3.41457 12.1948 3.37506 12.0995 3.37506 12C3.37506 11.9005 3.41457 11.8052 3.4849 11.7348C3.55522 11.6645 3.6506 11.625 3.75006 11.625C3.84952 11.625 3.9449 11.6645 4.01523 11.7348C4.08555 11.8052 4.12506 11.9005 4.12506 12ZM3.75006 17.25H3.75706V17.258H3.75006V17.25ZM4.12506 17.25C4.12506 17.3495 4.08555 17.4448 4.01523 17.5152C3.9449 17.5855 3.84952 17.625 3.75006 17.625C3.6506 17.625 3.55522 17.5855 3.4849 17.5152C3.41457 17.4448 3.37506 17.3495 3.37506 17.25C3.37506 17.1505 3.41457 17.0552 3.4849 16.9848C3.55522 16.9145 3.6506 16.875 3.75006 16.875C3.84952 16.875 3.9449 16.9145 4.01523 16.9848C4.08555 17.0552 4.12506 17.1505 4.12506 17.25Z" stroke="white" stroke-width="1.5" stroke-linecap="round" stroke-linejoin="round"/>
</g>
<defs>
<clipPath id="clip0_377_55">
<rect width="24" height="24" fill="white" transform="translate(0.0376587)"/>
</clipPath>
</defs>
</svg>
