<svg width="21" height="22" viewBox="0 0 21 22" fill="none" xmlns="http://www.w3.org/2000/svg">
<path d="M18.5352 9.85664C18.2625 9.76996 17.9704 9.76541 17.6951 9.84356C17.4198 9.92171 17.1737 10.0791 16.9872 10.2961L14.246 14.0386C14.2066 14.3995 14.0378 14.7338 13.7708 14.9797C13.5039 15.2256 13.1568 15.3663 12.794 15.3759H7.56646C7.46849 15.3759 7.37454 15.337 7.30527 15.2677C7.236 15.1984 7.19708 15.1045 7.19708 15.0065C7.19708 14.9086 7.236 14.8146 7.30527 14.7453C7.37454 14.6761 7.46849 14.6371 7.56646 14.6371H12.794C12.998 14.6251 13.1889 14.533 13.3253 14.3808C13.4616 14.2285 13.5323 14.0286 13.5218 13.8245C13.5404 13.4187 13.3978 13.022 13.1251 12.721C12.8524 12.4199 12.4717 12.2388 12.0661 12.2173H6.01058C5.33625 12.227 4.67578 12.4102 4.0928 12.7492C3.50982 13.0882 3.02398 13.5717 2.68208 14.153L1.16333 16.6138L3.19546 21.0879L5.80396 19.5879C6.23379 19.3018 6.71588 19.1034 7.22258 19.004L12.5828 18.3429C13.3069 18.1922 13.9584 17.8 14.4305 17.2306L19.0786 11.0904C19.1673 10.9825 19.2243 10.852 19.2433 10.7136C19.2624 10.5752 19.2426 10.4343 19.1863 10.3064C19.13 10.1786 19.0393 10.0688 18.9244 9.98942C18.8094 9.91002 18.6747 9.86406 18.5352 9.85664ZM8.89246 5.02364C10.5792 6.19889 13.1075 4.87814 13.0527 2.77739C13.0522 2.06483 12.7692 1.38154 12.2656 0.877367C11.7621 0.373192 11.0791 0.0892815 10.3666 0.0878917C7.70596 0.0856417 6.68671 3.59864 8.89246 5.02364ZM18.6128 3.18764C18.518 0.223642 14.2205 0.224392 14.1278 3.18764C14.2347 6.15389 18.5026 6.15577 18.6128 3.18764Z" fill="white"/>
<path d="M19.0047 5.40804L18.5206 5.24567C18.1165 5.66963 17.5962 5.96483 17.025 6.09426C16.4538 6.22368 15.8572 6.18155 15.3098 5.97317C15.71 6.50154 15.9255 7.14673 15.9233 7.80954V8.81454C15.9238 8.83798 15.9226 8.86142 15.9196 8.88467H19.5143C19.7318 8.88447 19.9402 8.798 20.094 8.64424C20.2478 8.49048 20.3342 8.28199 20.3344 8.06454V7.25154C20.3339 6.84368 20.2052 6.44629 19.9666 6.1155C19.728 5.78471 19.3915 5.53724 19.0047 5.40804ZM6.61281 3.18767C6.52056 0.224416 2.22268 0.224041 2.12781 3.18767C2.22681 6.15092 6.51568 6.15204 6.61281 3.18767Z" fill="white"/>
<path d="M4.80981 8.88461C4.80682 8.86136 4.80557 8.83792 4.80606 8.81448C4.77531 7.86873 4.77606 6.73923 5.40831 5.98436C4.86275 6.18562 4.27023 6.22291 3.70374 6.09165C3.13724 5.96039 2.62151 5.6663 2.22006 5.24561L1.73631 5.40798C1.34938 5.53711 1.0128 5.78455 0.774128 6.11535C0.535452 6.44614 0.406745 6.84357 0.406189 7.25148V8.06448C0.406388 8.28193 0.492857 8.49042 0.646617 8.64418C0.800378 8.79794 1.00886 8.88441 1.22631 8.88461H4.80981ZM5.54519 7.80948V8.81448C5.5446 8.83792 5.54585 8.86137 5.54894 8.88461C5.56531 9.11805 5.66986 9.33652 5.84138 9.49571C6.0129 9.65491 6.23855 9.7429 6.47256 9.74186H14.2606C14.494 9.74223 14.719 9.65391 14.8898 9.49476C15.0606 9.33562 15.1647 9.11753 15.1808 8.88461C15.1839 8.86137 15.1852 8.83792 15.1846 8.81448V7.80948C15.1827 7.29003 15.0082 6.78593 14.6885 6.37656C14.3687 5.96718 13.9219 5.67578 13.4183 5.54823L12.6758 5.30073C12.0438 5.87583 11.2201 6.19484 10.3656 6.19553C9.51107 6.19622 8.68692 5.87855 8.05394 5.30448L7.31894 5.54823C6.81406 5.67448 6.36561 5.9653 6.04441 6.37478C5.72321 6.78426 5.54756 7.28906 5.54519 7.80948Z" fill="white"/>
</svg>
