<svg width="26" height="25" viewBox="0 0 26 25" fill="none" xmlns="http://www.w3.org/2000/svg">
<path fill-rule="evenodd" clip-rule="evenodd" d="M2.42688 6.25C2.42688 5.65326 2.66393 5.08097 3.08589 4.65901C3.50785 4.23705 4.08014 4 4.67688 4H21.1769C21.7736 4 22.3459 4.23705 22.7679 4.65901C23.1898 5.08097 23.4269 5.65326 23.4269 6.25V18.25C23.4269 18.8467 23.1898 19.419 22.7679 19.841C22.3459 20.2629 21.7736 20.5 21.1769 20.5H4.67688C4.08014 20.5 3.50785 20.2629 3.08589 19.841C2.66393 19.419 2.42688 18.8467 2.42688 18.25V6.25ZM3.92688 16.31V18.25C3.92688 18.664 4.26288 19 4.67688 19H21.1769C21.3758 19 21.5666 18.921 21.7072 18.7803C21.8479 18.6397 21.9269 18.4489 21.9269 18.25V16.31L19.2369 13.621C18.9556 13.3401 18.5744 13.1823 18.1769 13.1823C17.7794 13.1823 17.3981 13.3401 17.1169 13.621L16.2369 14.5L17.2069 15.47C17.2806 15.5387 17.3397 15.6215 17.3807 15.7135C17.4217 15.8055 17.4437 15.9048 17.4455 16.0055C17.4472 16.1062 17.4287 16.2062 17.391 16.2996C17.3533 16.393 17.2971 16.4778 17.2259 16.549C17.1547 16.6203 17.0699 16.6764 16.9765 16.7141C16.8831 16.7518 16.7831 16.7704 16.6824 16.7686C16.5817 16.7668 16.4823 16.7448 16.3903 16.7038C16.2983 16.6628 16.2155 16.6037 16.1469 16.53L10.9869 11.371C10.7056 11.0901 10.3244 10.9323 9.92688 10.9323C9.52938 10.9323 9.14813 11.0901 8.86688 11.371L3.92688 16.311V16.31ZM14.0519 8.5C14.0519 8.20163 14.1704 7.91548 14.3814 7.7045C14.5924 7.49353 14.8785 7.375 15.1769 7.375C15.4752 7.375 15.7614 7.49353 15.9724 7.7045C16.1834 7.91548 16.3019 8.20163 16.3019 8.5C16.3019 8.79837 16.1834 9.08452 15.9724 9.2955C15.7614 9.50647 15.4752 9.625 15.1769 9.625C14.8785 9.625 14.5924 9.50647 14.3814 9.2955C14.1704 9.08452 14.0519 8.79837 14.0519 8.5Z" fill="white"/>
</svg>
