<svg width="19" height="21" viewBox="0 0 19 21" fill="none" xmlns="http://www.w3.org/2000/svg">
<path d="M13.4623 10.5878C10.5673 10.5878 8.21232 12.906 8.21232 15.7557C8.21232 18.6055 10.5673 20.9237 13.4623 20.9237C16.3573 20.9237 18.7123 18.6055 18.7123 15.7557C18.7123 12.906 16.3573 10.5878 13.4623 10.5878ZM15.6261 15.1703L13.3761 17.3851C13.3066 17.4539 13.224 17.5085 13.133 17.5458C13.042 17.583 12.9444 17.6022 12.8458 17.6022C12.7473 17.6022 12.6497 17.583 12.5587 17.5458C12.4677 17.5085 12.3851 17.4539 12.3156 17.3851L11.2978 16.3833C11.2282 16.3147 11.1729 16.2334 11.1353 16.1438C11.0976 16.0542 11.0782 15.9582 11.0782 15.8613C11.0782 15.7644 11.0976 15.6684 11.1353 15.5788C11.1729 15.4893 11.2282 15.4079 11.2978 15.3393C11.3675 15.2708 11.4501 15.2164 11.5411 15.1793C11.6321 15.1422 11.7296 15.1231 11.8281 15.1231C11.9265 15.1231 12.0241 15.1422 12.115 15.1793C12.206 15.2164 12.2887 15.2708 12.3583 15.3393L12.8458 15.8192L14.5656 14.1264C14.7062 13.9879 14.8969 13.9101 15.0958 13.9101C15.2947 13.9101 15.4854 13.9879 15.6261 14.1264C15.7667 14.2648 15.8457 14.4525 15.8457 14.6483C15.8457 14.8441 15.7667 15.0318 15.6261 15.1703ZM12.7783 0.251831H3.02832C1.78782 0.251831 0.77832 1.24556 0.77832 2.46667V16.494C0.77832 17.7151 1.78782 18.7089 3.02832 18.7089H7.42407C6.95658 17.7924 6.71262 16.7813 6.71157 15.7557C6.71157 12.0924 9.74007 9.11121 13.4616 9.11121C14.0016 9.11121 14.5243 9.1806 15.0283 9.29947V2.46667C15.0283 1.24556 14.0188 0.251831 12.7783 0.251831ZM4.49532 14.2792H2.99532C2.79641 14.2792 2.60564 14.2014 2.46499 14.0629C2.32434 13.9245 2.24532 13.7367 2.24532 13.5409C2.24532 13.3451 2.32434 13.1573 2.46499 13.0188C2.60564 12.8804 2.79641 12.8026 2.99532 12.8026H4.49532C4.69423 12.8026 4.885 12.8804 5.02565 13.0188C5.1663 13.1573 5.24532 13.3451 5.24532 13.5409C5.24532 13.7367 5.1663 13.9245 5.02565 14.0629C4.885 14.2014 4.69423 14.2792 4.49532 14.2792ZM6.74532 11.326H2.99532C2.79641 11.326 2.60564 11.2483 2.46499 11.1098C2.32434 10.9714 2.24532 10.7836 2.24532 10.5878C2.24532 10.392 2.32434 10.2042 2.46499 10.0657C2.60564 9.92727 2.79641 9.84949 2.99532 9.84949H6.74532C6.94423 9.84949 7.135 9.92727 7.27565 10.0657C7.4163 10.2042 7.49532 10.392 7.49532 10.5878C7.49532 10.7836 7.4163 10.9714 7.27565 11.1098C7.135 11.2483 6.94423 11.326 6.74532 11.326ZM9.74532 8.37292H2.99532C2.79641 8.37292 2.60564 8.29514 2.46499 8.15669C2.32434 8.01823 2.24532 7.83045 2.24532 7.63464C2.24532 7.43884 2.32434 7.25105 2.46499 7.1126C2.60564 6.97415 2.79641 6.89636 2.99532 6.89636H9.74532C9.94423 6.89636 10.135 6.97415 10.2757 7.1126C10.4163 7.25105 10.4953 7.43884 10.4953 7.63464C10.4953 7.83045 10.4163 8.01823 10.2757 8.15669C10.135 8.29514 9.94423 8.37292 9.74532 8.37292ZM9.74532 5.4198H2.99532C2.79641 5.4198 2.60564 5.34202 2.46499 5.20356C2.32434 5.06511 2.24532 4.87732 2.24532 4.68152C2.24532 4.48571 2.32434 4.29793 2.46499 4.15948C2.60564 4.02102 2.79641 3.94324 2.99532 3.94324H9.74532C9.94423 3.94324 10.135 4.02102 10.2757 4.15948C10.4163 4.29793 10.4953 4.48571 10.4953 4.68152C10.4953 4.87732 10.4163 5.06511 10.2757 5.20356C10.135 5.34202 9.94423 5.4198 9.74532 5.4198Z" fill="white"/>
</svg>
