<svg width="24" height="24" viewBox="0 0 24 24" fill="none" xmlns="http://www.w3.org/2000/svg">
<g clip-path="url(#clip0_423_229)">
<path d="M7.63661 2.72742H1.09126C0.488764 2.72742 0.000377493 3.2158 0.000377493 3.8183V10.3636C0.000377493 10.9661 0.488764 11.4545 1.09126 11.4545H7.63661C8.23911 11.4545 8.72749 10.9661 8.72749 10.3636V3.8183C8.72749 3.2158 8.23911 2.72742 7.63661 2.72742ZM6.54573 9.27276H2.18214V4.90918H6.54573V9.27276ZM22.9091 6.00007H12.0002C11.3977 6.00007 10.9093 6.48845 10.9093 7.09095C10.9093 7.69345 11.3977 8.18183 12.0002 8.18183H22.9091C23.5116 8.18183 24 7.69345 24 7.09095C24 6.4885 23.5116 6.00007 22.9091 6.00007ZM22.9091 16.909H12.0002C11.3977 16.909 10.9093 17.3974 10.9093 17.9999C10.9093 18.6023 11.3977 19.0908 12.0002 19.0908H22.9091C23.5116 19.0908 24 18.6023 24 17.9999C24 17.3974 23.5116 16.909 22.9091 16.909ZM6.87299 15.0425L3.24142 18.6304L1.87563 17.2123C1.45661 16.7791 0.765749 16.7676 0.332552 17.1866C-0.100645 17.6057 -0.112127 18.2965 0.306895 18.7297L2.43848 20.9453C2.53913 21.048 2.65909 21.1298 2.79145 21.1859C2.92382 21.2421 3.06598 21.2715 3.20976 21.2726H3.22285C3.50888 21.2717 3.78311 21.1585 3.98647 20.9573L8.40023 16.5937C8.85686 16.2008 8.90846 15.5119 8.51548 15.0553C8.12249 14.5987 7.43367 14.5471 6.97703 14.94C6.94011 14.9718 6.90535 15.0061 6.87299 15.0425Z" fill="white"/>
</g>
<defs>
<clipPath id="clip0_423_229">
<rect width="24" height="24" fill="white"/>
</clipPath>
</defs>
</svg>
